<?xml version="1.0" standalone="no"?>
<!DOCTYPE svg PUBLIC "-//W3C//DTD SVG 20010904//EN"
 "http://www.w3.org/TR/2001/REC-SVG-20010904/DTD/svg10.dtd">
<svg version="1.0" xmlns="http://www.w3.org/2000/svg"
 width="512.000000pt" height="512.000000pt" viewBox="0 0 512.000000 512.000000"
 preserveAspectRatio="xMidYMid meet">

<g transform="translate(0.000000,512.000000) scale(0.100000,-0.100000)"
fill="#000000" stroke="none">
<path d="M4078 4290 c-223 -38 -421 -159 -554 -339 l-59 -81 -1485 0 c-1634 0
-1551 3 -1672 -62 -69 -37 -167 -137 -203 -208 -46 -90 -55 -156 -55 -397 0
-210 1 -224 20 -243 25 -25 62 -26 83 -2 13 14 16 56 19 257 3 219 6 245 26
295 12 31 34 71 50 89 l28 34 989 -603 c544 -331 1012 -613 1040 -626 107 -50
252 -56 366 -16 31 11 230 125 442 255 212 129 395 240 407 247 20 11 29 5 93
-57 175 -168 358 -244 592 -245 225 -1 406 66 578 214 l57 49 0 -798 c0 -889
3 -853 -68 -953 -21 -30 -62 -72 -92 -92 -107 -73 51 -69 -2201 -66 l-2024 3
-65 31 c-36 17 -85 51 -109 75 -24 24 -58 73 -75 109 l-31 65 -3 640 c-2 573
-4 641 -19 657 -21 24 -58 23 -83 -2 -20 -20 -20 -33 -20 -643 0 -519 2 -632
15 -680 47 -182 180 -315 362 -362 50 -13 320 -15 2075 -15 1434 0 2032 3
2070 11 177 37 327 179 373 354 13 51 15 181 15 944 l0 885 36 84 c139 322 76
676 -164 933 -190 203 -485 304 -754 259z m280 -126 c398 -82 657 -470 576
-862 -32 -157 -100 -278 -218 -389 -86 -82 -173 -134 -281 -170 -70 -23 -97
-27 -215 -27 -115 -1 -146 3 -210 22 -313 98 -511 351 -527 672 -10 216 62
403 213 554 175 175 421 250 662 200z m-958 -427 c0 -2 -10 -39 -21 -83 -16
-61 -21 -109 -21 -209 -1 -149 19 -240 77 -364 20 -41 32 -77 28 -81 -24 -21
-761 -465 -810 -488 -50 -23 -70 -27 -148 -27 -70 1 -100 6 -137 22 -43 20
-173 98 -1148 693 -201 123 -469 286 -597 364 -127 78 -229 144 -227 148 3 4
19 12 37 17 29 8 2967 16 2967 8z"/>
<path d="M4140 3968 c-35 -18 -51 -36 -70 -75 -22 -45 -28 -50 -44 -41 -67 38
-149 24 -200 -33 -45 -49 -55 -98 -33 -160 21 -58 21 -59 0 -59 -53 0 -123
-88 -123 -153 0 -75 52 -145 121 -162 l26 -6 -18 -37 c-25 -48 -24 -88 4 -142
16 -33 34 -51 67 -67 54 -28 94 -29 142 -4 l37 18 6 -26 c16 -64 89 -121 154
-121 68 0 144 54 156 112 8 33 5 32 64 11 79 -28 158 4 197 79 20 38 20 107 1
145 l-15 29 48 22 c53 24 84 65 95 122 13 71 -48 163 -116 177 -16 3 -29 6
-29 8 0 1 7 16 16 34 29 58 19 135 -25 185 -42 48 -146 65 -196 32 -30 -20
-35 -20 -35 -1 0 28 -29 73 -63 99 -50 38 -111 43 -167 14z m110 -211 c4 -83
8 -101 24 -113 37 -27 65 -17 131 47 47 45 69 60 87 57 16 -2 24 -11 26 -28 2
-19 -11 -39 -58 -85 -63 -63 -74 -92 -46 -131 12 -16 31 -20 113 -24 95 -5 98
-6 101 -29 6 -39 -22 -51 -112 -51 -89 0 -116 -14 -116 -59 0 -19 17 -43 60
-86 64 -63 75 -96 39 -115 -18 -10 -29 -3 -90 54 -38 37 -78 66 -90 66 -11 0
-31 -11 -44 -25 -23 -22 -25 -32 -25 -108 0 -81 -9 -107 -36 -107 -33 0 -44
31 -44 120 0 80 -2 90 -22 104 -37 26 -56 19 -128 -49 -59 -55 -73 -64 -89
-56 -38 21 -33 40 34 111 68 72 75 91 49 128 -14 20 -24 22 -104 22 -89 0
-120 11 -120 44 0 27 26 36 107 36 76 0 86 2 108 25 14 13 25 29 25 35 0 22
-23 56 -77 111 -49 50 -54 59 -44 78 20 36 52 25 116 -39 63 -64 93 -74 127
-43 14 13 18 31 18 95 0 95 11 120 48 116 27 -3 27 -4 32 -101z"/>
<path d="M70 2830 c-29 -29 -29 -151 0 -180 25 -25 62 -26 83 -2 25 28 24 163
-1 185 -25 23 -58 21 -82 -3z"/>
</g>
</svg>
