<?xml version="1.0" standalone="no"?>
<!DOCTYPE svg PUBLIC "-//W3C//DTD SVG 20010904//EN"
 "http://www.w3.org/TR/2001/REC-SVG-20010904/DTD/svg10.dtd">
<svg version="1.0" xmlns="http://www.w3.org/2000/svg"
 width="512.000000pt" height="512.000000pt" viewBox="0 0 512.000000 512.000000"
 preserveAspectRatio="xMidYMid meet">

<g transform="translate(0.000000,512.000000) scale(0.100000,-0.100000)"
fill="#000000" stroke="none">
<path d="M2843 5060 c-589 -48 -1091 -443 -1279 -1006 -45 -135 -53 -197 -29
-224 22 -24 58 -26 79 -5 9 9 20 35 26 58 79 315 237 570 464 753 159 129 335
217 538 269 140 37 385 46 540 21 283 -47 526 -173 733 -381 267 -267 396
-579 396 -955 0 -366 -135 -695 -391 -950 -192 -192 -437 -323 -707 -377 -121
-24 -384 -24 -505 0 -533 107 -939 498 -1063 1021 -15 63 -30 105 -41 113 -26
19 -58 16 -79 -7 -17 -19 -18 -27 -7 -93 43 -251 199 -542 398 -743 69 -70 71
-74 49 -80 -16 -4 -34 1 -52 14 -101 71 -263 46 -337 -51 -30 -39 -56 -108
-56 -146 0 -22 -13 -37 -67 -77 -82 -60 -233 -211 -288 -287 l-40 -56 -305 -3
c-282 -4 -310 -5 -371 -26 -220 -73 -378 -275 -396 -508 -22 -272 165 -531
432 -599 42 -11 112 -15 246 -15 l187 0 42 -66 c107 -164 322 -284 507 -284
l53 0 0 -57 c0 -102 66 -201 158 -240 45 -19 148 -19 192 -1 57 24 93 61 175
183 l79 115 1190 0 c1322 0 1264 -2 1404 67 88 43 192 136 248 221 21 31 52
95 68 142 30 82 31 91 30 240 -2 228 -43 405 -144 617 -192 403 -528 687 -969
819 -8 3 13 32 60 82 249 260 387 561 419 913 24 256 -32 544 -150 780 -139
275 -386 521 -664 661 -224 112 -517 168 -773 148z m-987 -2681 c23 -22 688
-988 714 -1038 29 -55 14 -83 -267 -493 -148 -216 -304 -447 -348 -512 -44
-65 -93 -127 -110 -137 -39 -25 -102 -24 -143 1 -58 35 -62 60 -62 345 0 242
-1 256 -20 275 -19 19 -33 20 -544 20 -497 0 -527 1 -589 20 -74 23 -167 87
-215 148 -109 137 -130 334 -51 490 34 68 122 159 188 196 98 53 132 56 685
56 460 0 511 2 528 17 17 15 18 37 18 277 0 234 2 265 18 295 38 71 143 92
198 40z m326 -40 c128 -83 292 -150 467 -191 123 -28 402 -36 537 -15 193 31
373 96 535 194 49 29 97 53 108 53 35 0 195 -51 289 -92 286 -125 556 -388
692 -674 93 -193 134 -372 134 -579 0 -119 -4 -149 -22 -199 -63 -171 -217
-304 -387 -336 -43 -8 -383 -10 -1191 -8 l-1132 3 233 340 c128 187 238 356
244 376 15 51 14 133 -4 175 -8 19 -158 245 -335 503 -176 258 -320 471 -320
474 0 3 8 8 18 10 46 12 75 5 134 -34z m-665 -466 c-3 -2 -57 -2 -122 -1
l-119 3 60 67 c32 36 86 90 119 119 l60 52 3 -118 c1 -65 1 -119 -1 -122z m3
-1273 l0 -110 -48 0 c-107 0 -241 55 -330 135 -99 89 -105 85 153 85 l225 0 0
-110z"/>
<path d="M1510 3700 c-28 -28 -29 -158 -2 -183 25 -23 58 -21 82 3 16 16 20
33 20 90 0 76 -19 110 -60 110 -11 0 -29 -9 -40 -20z"/>
</g>
</svg>
