<?xml version="1.0" standalone="no"?>
<!DOCTYPE svg PUBLIC "-//W3C//DTD SVG 20010904//EN"
 "http://www.w3.org/TR/2001/REC-SVG-20010904/DTD/svg10.dtd">
<svg version="1.0" xmlns="http://www.w3.org/2000/svg"
 width="512.000000pt" height="512.000000pt" viewBox="0 0 512.000000 512.000000"
 preserveAspectRatio="xMidYMid meet">

<g transform="translate(0.000000,512.000000) scale(0.100000,-0.100000)"
fill="#000000" stroke="none">
<path d="M2125 4944 c-287 -41 -486 -112 -685 -245 -332 -222 -554 -549 -643
-947 -18 -82 -21 -128 -21 -302 0 -223 13 -311 70 -477 78 -227 238 -478 391
-613 30 -26 41 -41 32 -44 -8 -2 -45 -14 -84 -26 -187 -58 -436 -209 -582
-353 -68 -66 -79 -99 -45 -130 32 -30 61 -20 127 41 186 175 418 303 642 357
l72 17 73 -45 c172 -108 368 -180 574 -212 132 -21 395 -16 514 10 183 41 375
118 510 205 l64 42 81 -20 c45 -12 109 -31 144 -44 l62 -24 -73 -49 c-144 -99
-285 -267 -358 -428 -217 -480 -42 -1058 403 -1330 l61 -37 -1394 2 -1395 3
-59 23 c-171 65 -289 185 -338 345 -18 62 -20 86 -15 221 6 154 21 244 62 375
26 82 20 117 -21 127 -53 14 -78 -22 -118 -166 -51 -182 -66 -449 -32 -570 47
-172 178 -331 336 -409 154 -75 34 -71 1886 -71 1792 0 1741 -1 1904 52 507
165 813 690 704 1210 -78 377 -358 683 -724 791 -207 62 -391 62 -602 2 l-88
-25 -57 29 c-32 15 -94 40 -138 55 -44 15 -86 29 -94 32 -9 3 12 32 66 87 192
198 318 421 384 683 209 829 -319 1662 -1165 1835 -97 20 -357 34 -431 23z
m412 -143 c364 -75 673 -283 879 -592 152 -228 227 -479 227 -759 0 -375 -137
-705 -402 -971 -267 -266 -594 -402 -971 -402 -169 -1 -287 18 -437 68 -475
159 -815 545 -920 1045 -25 119 -25 401 0 520 59 281 185 516 382 714 213 214
506 358 807 396 111 14 318 5 435 -19z m1564 -2666 c371 -65 661 -335 751
-701 16 -67 21 -120 21 -214 0 -94 -5 -147 -21 -214 -90 -365 -380 -637 -751
-701 -106 -19 -182 -19 -298 0 -366 59 -657 323 -754 685 -33 122 -33 338 -1
459 128 472 583 768 1053 686z"/>
<path d="M3853 2017 c-66 -25 -119 -73 -152 -137 -31 -63 -31 -64 -31 -221 l0
-157 -167 -4 c-164 -3 -169 -4 -221 -32 -95 -53 -145 -138 -145 -246 0 -108
50 -193 145 -246 52 -28 57 -29 221 -32 l167 -4 0 -156 c0 -136 3 -163 21
-202 32 -72 65 -106 130 -139 143 -71 303 -19 377 123 25 48 26 61 30 214 l4
162 142 0 c184 0 230 13 301 83 115 116 115 278 0 394 -71 70 -117 83 -301 83
l-142 0 -4 163 c-4 152 -5 165 -30 212 -54 102 -138 155 -248 154 -36 0 -79
-6 -97 -12z m177 -130 c68 -45 75 -70 78 -284 3 -163 6 -193 20 -206 14 -12
56 -16 213 -19 l196 -3 37 -29 c88 -67 87 -186 -2 -254 -35 -27 -36 -27 -231
-30 -157 -3 -199 -7 -213 -19 -14 -13 -17 -43 -20 -206 -3 -172 -5 -196 -24
-227 -62 -106 -213 -107 -272 -2 -21 37 -22 52 -22 226 0 244 18 226 -222 226
-161 0 -186 2 -222 20 -58 28 -86 73 -86 140 0 67 28 112 86 140 36 18 61 20
222 20 240 0 222 -19 222 228 0 173 2 190 21 222 36 58 72 78 140 79 32 1 56
-6 79 -22z"/>
<path d="M386 1675 c-13 -14 -37 -50 -52 -80 -27 -52 -28 -57 -14 -82 13 -22
23 -28 50 -28 32 0 39 6 77 65 48 73 54 111 21 134 -32 23 -55 20 -82 -9z"/>
</g>
</svg>
